<?xml version="1.0" encoding="UTF-8" standalone="no" ?>
<!DOCTYPE svg PUBLIC "-//W3C//DTD SVG 1.1//EN" "http://www.w3.org/Graphics/SVG/1.1/DTD/svg11.dtd">
<svg xmlns="http://www.w3.org/2000/svg" xmlns:xlink="http://www.w3.org/1999/xlink" version="1.1" width="1080" height="1080" viewBox="0 0 1080 1080" xml:space="preserve">
<desc>Created with Fabric.js 5.2.4</desc>
<defs>
</defs>
<g transform="matrix(1 0 0 1 540 540)" id="4a5233fe-6ec5-4e9b-b69c-1db600cb4cbd"  >
<rect style="stroke: none; stroke-width: 1; stroke-dasharray: none; stroke-linecap: butt; stroke-dashoffset: 0; stroke-linejoin: miter; stroke-miterlimit: 4; fill: rgb(255,255,255); fill-rule: nonzero; opacity: 1; visibility: hidden;" vector-effect="non-scaling-stroke"  x="-540" y="-540" rx="0" ry="0" width="1080" height="1080" />
</g>
<g transform="matrix(1 0 0 1 540 540)" id="e8451046-60e5-4311-8c43-bd91dbafed38"  >
</g>
<g transform="matrix(33.33 0 0 33.33 601.22 604.85)"  >
<path style="stroke: none; stroke-width: 1; stroke-dasharray: none; stroke-linecap: butt; stroke-dashoffset: 0; stroke-linejoin: miter; stroke-miterlimit: 4; fill: rgb(211,211,211); fill-rule: evenodd; opacity: 1;" vector-effect="non-scaling-stroke"  transform=" translate(-14, -14)" d="M 21 8 C 21 6.34315 19.6569 5 18 5 L 10 5 C 8.34315 5 7 6.34315 7 8 L 7 20 C 7 21.6569 8.34315 23 10 23 L 18 23 C 19.6569 23 21 21.6569 21 20 L 21 8 Z M 19 8 C 19 7.44772 18.5523 7 18 7 L 10 7 C 9.44772 7 9 7.44772 9 8 L 9 20 C 9 20.5523 9.44772 21 10 21 L 18 21 C 18.5523 21 19 20.5523 19 20 L 19 8 Z" stroke-linecap="round" />
</g>
<g transform="matrix(33.33 0 0 33.33 473.33 473.33)"  >
<path style="stroke: none; stroke-width: 1; stroke-dasharray: none; stroke-linecap: butt; stroke-dashoffset: 0; stroke-linejoin: miter; stroke-miterlimit: 4; fill: rgb(211,211,211); fill-rule: nonzero; opacity: 1;" vector-effect="non-scaling-stroke"  transform=" translate(-10, -10)" d="M 6 3 L 16 3 C 16.5523 3 17 2.55228 17 2 C 17 1.44772 16.5523 1 16 1 L 6 1 C 4.34315 1 3 2.34315 3 4 L 3 18 C 3 18.5523 3.44772 19 4 19 C 4.55228 19 5 18.5523 5 18 L 5 4 C 5 3.44772 5.44772 3 6 3 Z" stroke-linecap="round" />
</g>
</svg>