<?xml version="1.0" encoding="UTF-8" standalone="no" ?>
<!DOCTYPE svg PUBLIC "-//W3C//DTD SVG 1.1//EN" "http://www.w3.org/Graphics/SVG/1.1/DTD/svg11.dtd">
<svg xmlns="http://www.w3.org/2000/svg" xmlns:xlink="http://www.w3.org/1999/xlink" version="1.1" width="1080" height="1080" viewBox="0 0 1080 1080" xml:space="preserve">
<desc>Created with Fabric.js 5.2.4</desc>
<defs>
</defs>
<rect x="0" y="0" width="100%" height="100%" fill="transparent"></rect>
<g transform="matrix(1 0 0 1 540 540)" id="1df9b32e-35d4-43ac-a727-f880f934999e"  >
<rect style="stroke: none; stroke-width: 1; stroke-dasharray: none; stroke-linecap: butt; stroke-dashoffset: 0; stroke-linejoin: miter; stroke-miterlimit: 4; fill: rgb(255,255,255); fill-rule: nonzero; opacity: 1; visibility: hidden;" vector-effect="non-scaling-stroke"  x="-540" y="-540" rx="0" ry="0" width="1080" height="1080" />
</g>
<g transform="matrix(1 0 0 1 540 540)" id="9985622a-4d2f-4fb2-b908-833ff1552a84"  >
</g>
<g transform="matrix(1 0 0 1 50 50)"  >
<rect style="stroke: none; stroke-width: 1; stroke-dasharray: none; stroke-linecap: butt; stroke-dashoffset: 0; stroke-linejoin: miter; stroke-miterlimit: 4; fill: rgb(255,255,255); fill-opacity: 0; fill-rule: nonzero; opacity: 1;" vector-effect="non-scaling-stroke"  x="-50" y="-50" rx="0" ry="0" width="100" height="100" />
</g>
<g transform="matrix(1 0 0 1 540 540)"  >
<rect style="stroke: none; stroke-width: 1; stroke-dasharray: none; stroke-linecap: butt; stroke-dashoffset: 0; stroke-linejoin: miter; stroke-miterlimit: 4; fill: rgb(255,255,255); fill-rule: nonzero; opacity: 1; visibility: hidden;" vector-effect="non-scaling-stroke"  x="-540" y="-540" rx="0" ry="0" width="1080" height="1080" />
</g>
<g transform="matrix(1 0 0 1 540 540)"  >
<rect style="stroke: none; stroke-width: 1; stroke-dasharray: none; stroke-linecap: butt; stroke-dashoffset: 0; stroke-linejoin: miter; stroke-miterlimit: 4; fill: rgb(255,255,255); fill-rule: nonzero; opacity: 1; visibility: hidden;" vector-effect="non-scaling-stroke"  x="-540" y="-540" rx="0" ry="0" width="1080" height="1080" />
</g>
<g transform="matrix(52.5 0 0 52.5 536.72 536.72)"  >
<path style="stroke: rgb(0,0,0); stroke-width: 0; stroke-dasharray: none; stroke-linecap: butt; stroke-dashoffset: 0; stroke-linejoin: miter; stroke-miterlimit: 4; fill: rgb(175,39,39); fill-rule: nonzero; opacity: 1;" vector-effect="non-scaling-stroke"  transform=" translate(-12, -12)" d="M 7 4 C 7 2.895430500338413 7.8954305003384135 2 9 2 L 15 2 C 16.104569499661586 2 17 2.8954305003384126 17 3.9999999999999996 L 17 6 L 21 6 C 21.552284749830793 6 22 6.447715250169207 22 7 C 22 7.552284749830793 21.552284749830793 8 21 8 L 19.931 8 L 19.064 20.142 C 18.98948647617137 21.188837683087687 18.11848625495902 22.000024856527556 17.069 22 L 6.93 22 C 5.880513745040979 22.000024856527556 5.009513523828632 21.188837683087687 4.935 20.142 L 4.07 8 L 3 8 C 2.4477152501692068 8 2 7.552284749830793 2 7 C 2 6.447715250169207 2.4477152501692068 6 3 6 L 7 6 L 7 4 z M 9 6 L 15 6 L 15 4 L 9 4 L 9 6 z M 6.074 8 L 6.931 20 L 17.07 20 L 17.927 8 L 6.074 8 z M 10 10 C 10.552284749830793 10 11 10.447715250169207 11 11 L 11 17 C 11 17.552284749830793 10.552284749830793 18 10 18 C 9.447715250169207 18 9 17.552284749830793 9 17 L 9 11 C 9 10.447715250169207 9.447715250169207 10 10 10 z M 14 10 C 14.552284749830793 10 15 10.447715250169207 15 11 L 15 17 C 15 17.552284749830793 14.552284749830793 18 14 18 C 13.447715250169207 18 13 17.552284749830793 13 17 L 13 11 C 13 10.447715250169207 13.447715250169207 10 14 10 z" stroke-linecap="round" />
</g>
</svg>