<?xml version="1.0" encoding="UTF-8" standalone="no" ?>
<!DOCTYPE svg PUBLIC "-//W3C//DTD SVG 1.1//EN" "http://www.w3.org/Graphics/SVG/1.1/DTD/svg11.dtd">
<svg xmlns="http://www.w3.org/2000/svg" xmlns:xlink="http://www.w3.org/1999/xlink" version="1.1" width="1080" height="1080" viewBox="0 0 1080 1080" xml:space="preserve">
<desc>Created with Fabric.js 5.2.4</desc>
<defs>
</defs>
<g transform="matrix(1 0 0 1 540 540)" id="1df9b32e-35d4-43ac-a727-f880f934999e"  >
<rect style="stroke: none; stroke-width: 1; stroke-dasharray: none; stroke-linecap: butt; stroke-dashoffset: 0; stroke-linejoin: miter; stroke-miterlimit: 4; fill: rgb(255,255,255); fill-rule: nonzero; opacity: 1; visibility: hidden;" vector-effect="non-scaling-stroke"  x="-540" y="-540" rx="0" ry="0" width="1080" height="1080" />
</g>
<g transform="matrix(1 0 0 1 540 540)" id="9985622a-4d2f-4fb2-b908-833ff1552a84"  >
</g>
<g transform="matrix(1 0 0 1 50 50)"  >
<rect style="stroke: none; stroke-width: 1; stroke-dasharray: none; stroke-linecap: butt; stroke-dashoffset: 0; stroke-linejoin: miter; stroke-miterlimit: 4; fill: rgb(255,255,255); fill-opacity: 0; fill-rule: nonzero; opacity: 1;" vector-effect="non-scaling-stroke"  x="-50" y="-50" rx="0" ry="0" width="100" height="100" />
</g>
<g transform="matrix(1 0 0 1 540 540)"  >
<rect style="stroke: none; stroke-width: 1; stroke-dasharray: none; stroke-linecap: butt; stroke-dashoffset: 0; stroke-linejoin: miter; stroke-miterlimit: 4; fill: rgb(255,255,255); fill-rule: nonzero; opacity: 1; visibility: hidden;" vector-effect="non-scaling-stroke"  x="-540" y="-540" rx="0" ry="0" width="1080" height="1080" />
</g>
<g transform="matrix(52.1 0 0 52.1 539.78 540.22)"  >
<path style="stroke: rgb(0,0,0); stroke-width: 0; stroke-dasharray: none; stroke-linecap: butt; stroke-dashoffset: 0; stroke-linejoin: miter; stroke-miterlimit: 4; fill: rgb(68,68,68); fill-rule: nonzero; opacity: 1;" vector-effect="non-scaling-stroke"  transform=" translate(-12.09, -11.91)" d="M 21.1213 2.70705 C 19.9497 1.53548 18.0503 1.53547 16.8787 2.70705 L 15.1989 4.38685 L 7.29289 12.2928 C 7.16473 12.421 7.07382 12.5816 7.02986 12.7574 L 6.02986 16.7574 C 5.94466 17.0982 6.04451 17.4587 6.29289 17.707 C 6.54127 17.9554 6.90176 18.0553 7.24254 17.9701 L 11.2425 16.9701 C 11.4184 16.9261 11.5789 16.8352 11.7071 16.707 L 19.5556 8.85857 L 21.2929 7.12126 C 22.4645 5.94969 22.4645 4.05019 21.2929 2.87862 L 21.1213 2.70705 Z M 18.2929 4.12126 C 18.6834 3.73074 19.3166 3.73074 19.7071 4.12126 L 19.8787 4.29283 C 20.2692 4.68336 20.2692 5.31653 19.8787 5.70705 L 18.8622 6.72357 L 17.3068 5.10738 L 18.2929 4.12126 Z M 15.8923 6.52185 L 17.4477 8.13804 L 10.4888 15.097 L 8.37437 15.6256 L 8.90296 13.5112 L 15.8923 6.52185 Z M 4 7.99994 C 4 7.44766 4.44772 6.99994 5 6.99994 L 10 6.99994 C 10.5523 6.99994 11 6.55223 11 5.99994 C 11 5.44766 10.5523 4.99994 10 4.99994 L 5 4.99994 C 3.34315 4.99994 2 6.34309 2 7.99994 L 2 18.9999 C 2 20.6568 3.34315 21.9999 5 21.9999 L 16 21.9999 C 17.6569 21.9999 19 20.6568 19 18.9999 L 19 13.9999 C 19 13.4477 18.5523 12.9999 18 12.9999 C 17.4477 12.9999 17 13.4477 17 13.9999 L 17 18.9999 C 17 19.5522 16.5523 19.9999 16 19.9999 L 5 19.9999 C 4.44772 19.9999 4 19.5522 4 18.9999 L 4 7.99994 Z" stroke-linecap="round" />
</g>
</svg>