<?xml version="1.0" encoding="UTF-8" standalone="no" ?>
<!DOCTYPE svg PUBLIC "-//W3C//DTD SVG 1.1//EN" "http://www.w3.org/Graphics/SVG/1.1/DTD/svg11.dtd">
<svg xmlns="http://www.w3.org/2000/svg" xmlns:xlink="http://www.w3.org/1999/xlink" version="1.1" width="1080" height="1080" viewBox="0 0 1080 1080" xml:space="preserve">
<desc>Created with Fabric.js 5.2.4</desc>
<defs>
</defs>
<rect x="0" y="0" width="100%" height="100%" fill="transparent"></rect>
<g transform="matrix(1 0 0 1 540 540)" id="49cb2f79-5628-441b-9429-2ca612102e42"  >
</g>
<g transform="matrix(1 0 0 1 540 540)" id="73a83892-b7b0-4b73-b7b4-3bc41e92b53a"  >
<rect style="stroke: none; stroke-width: 1; stroke-dasharray: none; stroke-linecap: butt; stroke-dashoffset: 0; stroke-linejoin: miter; stroke-miterlimit: 4; fill: rgb(255,255,255); fill-rule: nonzero; opacity: 1; visibility: hidden;" vector-effect="non-scaling-stroke"  x="-540" y="-540" rx="0" ry="0" width="1080" height="1080" />
</g>
<g transform="matrix(38.33 0 0 38.33 600.04 600.04)"  >
<path style="stroke: none; stroke-width: 1; stroke-dasharray: none; stroke-linecap: butt; stroke-dashoffset: 0; stroke-linejoin: miter; stroke-miterlimit: 4; fill: none; fill-rule: nonzero; opacity: 1;" vector-effect="non-scaling-stroke"  transform=" translate(-12, -12)" d="M 0 0 L 24 0 L 24 24 L 0 24 z" stroke-linecap="round" />
</g>
<g transform="matrix(38.33 0 0 38.33 600.05 628.8)"  >
<path style="stroke: none; stroke-width: 1; stroke-dasharray: none; stroke-linecap: butt; stroke-dashoffset: 0; stroke-linejoin: miter; stroke-miterlimit: 4; fill: rgb(211,211,211); fill-rule: nonzero; opacity: 1;" vector-effect="non-scaling-stroke"  transform=" translate(-12, -12.75)" d="M 6.455 19 L 2 22.5 L 2 4 C 2 3.4477152501692068 2.4477152501692068 3 3 3 L 21 3 C 21.552284749830793 3 22 3.4477152501692063 22 4 L 22 18 C 22 18.552284749830793 21.552284749830793 19 21 19 L 6.455 19 z M 4 18.385 L 5.763 17 L 20 17 L 20 5 L 4 5 L 4 18.384999999999998 z M 11 13 L 13 13 L 13 15 L 11 15 L 11 13 z M 11 7 L 13 7 L 13 12 L 11 12 L 11 7 z" stroke-linecap="round" />
</g>
</svg>