<?xml version="1.0" encoding="UTF-8" standalone="no" ?>
<!DOCTYPE svg PUBLIC "-//W3C//DTD SVG 1.1//EN" "http://www.w3.org/Graphics/SVG/1.1/DTD/svg11.dtd">
<svg xmlns="http://www.w3.org/2000/svg" xmlns:xlink="http://www.w3.org/1999/xlink" version="1.1" width="1080" height="1080" viewBox="0 0 1080 1080" xml:space="preserve">
<desc>Created with Fabric.js 5.2.4</desc>
<defs>
</defs>
<g transform="matrix(1 0 0 1 540 540)" id="7eb8d26a-b29f-49cd-bc0b-c2cbc66c11c0"  >
</g>
<g transform="matrix(1 0 0 1 540 540)" id="f83e23e6-c13f-4c52-8907-e1967f63c2e2"  >
<rect style="stroke: none; stroke-width: 1; stroke-dasharray: none; stroke-linecap: butt; stroke-dashoffset: 0; stroke-linejoin: miter; stroke-miterlimit: 4; fill: rgb(255,255,255); fill-rule: nonzero; opacity: 1; visibility: hidden;" vector-effect="non-scaling-stroke"  x="-540" y="-540" rx="0" ry="0" width="1080" height="1080" />
</g>
<g transform="matrix(33.33 0 0 33.33 539.96 539.96)" id="view-box"  >
<rect style="stroke: none; stroke-width: 1; stroke-dasharray: none; stroke-linecap: butt; stroke-dashoffset: 0; stroke-linejoin: miter; stroke-miterlimit: 4; fill: none; fill-rule: nonzero; opacity: 1;" vector-effect="non-scaling-stroke"  x="-12" y="-12" rx="0" ry="0" width="24" height="24" />
</g>
<g transform="matrix(59.58 0 0 59.58 539 539.01)"  >
<path style="stroke: none; stroke-width: 1; stroke-dasharray: none; stroke-linecap: butt; stroke-dashoffset: 0; stroke-linejoin: miter; stroke-miterlimit: 4; fill: rgb(211,211,211); fill-rule: nonzero; opacity: 1;" vector-effect="non-scaling-stroke"  transform=" translate(-8.75, -8.75)" d="M 5.75 17.5 C 5.335786437626905 17.5 5 17.164213562373096 5 16.75 C 5 16.335786437626904 5.335786437626905 16 5.75 16 L 14.55 16 C 15.29385440197071 16.050016015391044 15.939870853677586 15.493105281160979 16 14.75 L 16 2.75 C 15.939870853677586 2.006894718839021 15.29385440197071 1.4499839846089553 14.55 1.5 L 5.75 1.5 C 5.335786437626905 1.5 5 1.1642135623730951 5 0.75 C 5 0.33578643762690485 5.335786437626905 0 5.75 0 L 14.55 0 C 16.123750901093384 -0.054531250159682465 17.44409428260648 1.1762973258271021 17.5 2.7499999999999982 L 17.5 14.75 C 17.44409428260648 16.323702674172896 16.123750901093384 17.55453125015968 14.55 17.5 Z M 7.22 13.28 C 7.079243743912987 13.13933392414506 7.000160117323059 12.948495649510384 7.000160117323059 12.7495 C 7.000160117323059 12.550504350489614 7.079243743912987 12.359666075854939 7.22 12.219 L 9.939 9.5 L 0.75 9.5 C 0.3357864376269049 9.5 0 9.164213562373096 0 8.75 C 0 8.335786437626904 0.3357864376269049 8 0.75 8 L 9.94 8 L 7.22 5.28 C 6.944641139570884 4.984490245515518 6.952766124082653 4.523990278005263 7.2383782010439575 4.2383782010439575 C 7.523990278005261 3.952766124082653 7.9844902455155164 3.944641139570883 8.28 4.219999999999999 L 12.28 8.219999999999999 L 12.293 8.232999999999999 L 12.298 8.238999999999999 L 12.305 8.246999999999998 L 12.312 8.254999999999997 L 12.312 8.259999999999998 L 12.319999999999999 8.268999999999998 L 12.319999999999999 8.268999999999998 L 12.327999999999998 8.278999999999998 L 12.327999999999998 8.278999999999998 L 12.335999999999997 8.289999999999997 L 12.335999999999997 8.289999999999997 L 12.343999999999996 8.300999999999997 L 12.343999999999996 8.300999999999997 L 12.351999999999995 8.311999999999996 L 12.351999999999995 8.311999999999996 L 12.358999999999995 8.322999999999995 L 12.358999999999995 8.327999999999996 L 12.364999999999995 8.337999999999996 L 12.364999999999995 8.344999999999995 L 12.364999999999995 8.352999999999994 L 12.364999999999995 8.361999999999995 L 12.364999999999995 8.367999999999995 L 12.370999999999995 8.378999999999994 L 12.370999999999995 8.378999999999994 L 12.378999999999994 8.393999999999995 L 12.378999999999994 8.393999999999995 C 12.524945328607643 8.689417880104418 12.461278393850757 9.04546608849007 12.221999999999994 9.271999999999995 L 8.28 13.28 C 7.987182453226042 13.572453378057514 7.512817546773956 13.572453378057514 7.219999999999999 13.28 Z" stroke-linecap="round" />
</g>
</svg>