<?xml version="1.0" encoding="UTF-8" standalone="no" ?>
<!DOCTYPE svg PUBLIC "-//W3C//DTD SVG 1.1//EN" "http://www.w3.org/Graphics/SVG/1.1/DTD/svg11.dtd">
<svg xmlns="http://www.w3.org/2000/svg" xmlns:xlink="http://www.w3.org/1999/xlink" version="1.1" width="1080" height="1080" viewBox="0 0 1080 1080" xml:space="preserve">
<desc>Created with Fabric.js 5.2.4</desc>
<defs>
</defs>
<rect x="0" y="0" width="100%" height="100%" fill="transparent"></rect>
<g transform="matrix(1 0 0 1 540 540)" id="ee118eec-9315-4b2a-a3c4-0ff0ef781530"  >
<rect style="stroke: none; stroke-width: 1; stroke-dasharray: none; stroke-linecap: butt; stroke-dashoffset: 0; stroke-linejoin: miter; stroke-miterlimit: 4; fill: rgb(255,255,255); fill-rule: nonzero; opacity: 1; visibility: hidden;" vector-effect="non-scaling-stroke"  x="-540" y="-540" rx="0" ry="0" width="1080" height="1080" />
</g>
<g transform="matrix(1 0 0 1 540 540)" id="83cfe2ed-0498-4848-a39a-7c55a79990b2"  >
</g>
<g transform="matrix(65.46 0 0 65.46 540 540)" id="38f2223e-06ba-43df-b09b-bdc0be13015f"  >
<path style="stroke: rgb(0,0,0); stroke-width: 0; stroke-dasharray: none; stroke-linecap: butt; stroke-dashoffset: 0; stroke-linejoin: miter; stroke-miterlimit: 4; fill: rgb(211,211,211); fill-rule: nonzero; opacity: 1;" vector-effect="non-scaling-stroke"  transform=" translate(-16, -16)" d="M 9 17 L 15 17 L 15 23 C 15 23.552284749830793 15.447715250169207 24 16 24 C 16.552284749830793 24 17 23.552284749830793 17 23 L 17 17 L 23 17 C 23.552284749830793 17 24 16.552284749830793 24 16 C 24 15.447715250169207 23.552284749830793 15 23 15 L 17 15 L 17 9 C 17 8.447715250169207 16.552284749830793 8 16 8 C 15.447715250169207 8 15 8.447715250169207 15 9 L 15 15 L 9 15 C 8.447715250169207 15 8 15.447715250169207 8 16 C 8 16.552284749830793 8.447715250169207 17 9 17 Z" stroke-linecap="round" />
</g>
<g transform="matrix(NaN NaN NaN NaN 0 0)"  >
<g style=""   >
</g>
</g>
<g transform="matrix(NaN NaN NaN NaN 0 0)"  >
<g style=""   >
</g>
</g>
</svg>