<?xml version="1.0" encoding="UTF-8" standalone="no" ?>
<!DOCTYPE svg PUBLIC "-//W3C//DTD SVG 1.1//EN" "http://www.w3.org/Graphics/SVG/1.1/DTD/svg11.dtd">
<svg xmlns="http://www.w3.org/2000/svg" xmlns:xlink="http://www.w3.org/1999/xlink" version="1.1" width="1080" height="1080" viewBox="0 0 1080 1080" xml:space="preserve">
<desc>Created with Fabric.js 5.2.4</desc>
<defs>
</defs>
<g transform="matrix(1 0 0 1 540 540)" id="0248b6ef-0db4-4a83-92f6-29cdd109ed13"  >
</g>
<g transform="matrix(1 0 0 1 540 540)" id="09421e81-8b38-4029-9857-ca9304662a09"  >
<rect style="stroke: none; stroke-width: 1; stroke-dasharray: none; stroke-linecap: butt; stroke-dashoffset: 0; stroke-linejoin: miter; stroke-miterlimit: 4; fill: rgb(255,255,255); fill-rule: nonzero; opacity: 1; visibility: hidden;" vector-effect="non-scaling-stroke"  x="-540" y="-540" rx="0" ry="0" width="1080" height="1080" />
</g>
<g transform="matrix(-65.63 0 0 -65.63 540 540)"  >
<path style="stroke: rgb(0,0,0); stroke-width: 0; stroke-dasharray: none; stroke-linecap: butt; stroke-dashoffset: 0; stroke-linejoin: miter; stroke-miterlimit: 4; fill: rgb(211,211,211); fill-rule: nonzero; opacity: 1;" vector-effect="non-scaling-stroke"  transform=" translate(-12, -12.5)" d="M 4.29289 8.29289 C 4.68342 7.90237 5.31658 7.90237 5.70711 8.29289 L 12 14.5858 L 18.2929 8.29289 C 18.6834 7.90237 19.3166 7.90237 19.7071 8.29289 C 20.0976 8.68342 20.0976 9.31658 19.7071 9.70711 L 12.7071 16.7071 C 12.3166 17.0976 11.6834 17.0976 11.2929 16.7071 L 4.29289 9.70711 C 3.90237 9.31658 3.90237 8.68342 4.29289 8.29289 Z" stroke-linecap="round" />
</g>
</svg>